# xmcd CD database file
#
# Track frame offsets:
#	150
#	11748
#	26271
#	38694
#	51717
#	60690
#	70188
#	90786
#	102909
#	114132
#	130605
#	142578
#	155451
#
# Disc length: 2189 seconds
#
# Revision: 0
# Processed by: cddbd v1.5.2PL0 Copyright (c) Steve Scherf et al.
# Submitted via: CDex 1.51
#
DISCID=97088b0d
DTITLE=Matthew Ord - Westering
DYEAR=2007
DGENRE=Blues
TTITLE0=police dog blues
TTITLE1=guitar rag
TTITLE2=banjo tune
TTITLE3=crow jane
TTITLE4=east at gend art
TTITLE5=the first night in america
TTITLE6=foggy mountain breakdown
TTITLE7=handsome molly
TTITLE8=hangman's blues
TTITLE9=i'm so glad
TTITLE10=last day of summer
TTITLE11=planxty irwin
TTITLE12=the irish marche
EXTD=YEAR: 2007
EXTT0=
EXTT1=
EXTT2=
EXTT3=
EXTT4=
EXTT5=
EXTT6=
EXTT7=
EXTT8=
EXTT9=
EXTT10=
EXTT11=
EXTT12=
PLAYORDER=
